<?xml version="1.0" encoding="utf-8"?>
<!-- Generator: Adobe Illustrator 16.0.4, SVG Export Plug-In . SVG Version: 6.00 Build 0)  -->
<!DOCTYPE svg PUBLIC "-//W3C//DTD SVG 1.1//EN" "http://www.w3.org/Graphics/SVG/1.1/DTD/svg11.dtd">
<svg version="1.1" id="Calque_1_-_copie" xmlns="http://www.w3.org/2000/svg" xmlns:xlink="http://www.w3.org/1999/xlink" x="0px"
	 y="0px" width="32px" height="32px" viewBox="0 0 32 32" enable-background="new 0 0 32 32" xml:space="preserve">
<path fill="#444444" d="M28,5c0-2.761-5.373-5-12-5S4,2.239,4,5v6.999C4,14.76,9.373,17,16,17s12-2.24,12-5.001V5z M9.502,6.075
	C8.346,5.693,7.645,5.286,7.27,5c0.375-0.286,1.075-0.694,2.232-1.075C11.312,3.328,13.62,3,16,3s4.688,0.329,6.498,0.925
	C23.654,4.306,24.355,4.714,24.73,5c-0.375,0.286-1.076,0.694-2.232,1.075C20.688,6.672,18.38,7,16,7S11.312,6.671,9.502,6.075z"/>
<path fill="#444444" d="M16,25.021c-4.302,0-8.044-0.99-9.997-2.451v5.266C6.003,30.135,10.479,32,16,32
	c5.521,0,9.997-1.865,9.997-4.164v-2.5V22.57C24.044,24.031,20.301,25.021,16,25.021z"/>
<path fill="#444444" d="M16,18.424c-5.361,0-9.898-1.465-11.438-3.486v4.02c0,2.631,5.121,4.766,11.438,4.766
	c6.316,0,11.438-2.135,11.438-4.766v-4.02C25.898,16.959,21.361,18.424,16,18.424z"/>
</svg>
