<?xml version="1.0" encoding="utf-8"?>
<!-- Generator: Adobe Illustrator 16.0.4, SVG Export Plug-In . SVG Version: 6.00 Build 0)  -->
<!DOCTYPE svg PUBLIC "-//W3C//DTD SVG 1.1//EN" "http://www.w3.org/Graphics/SVG/1.1/DTD/svg11.dtd">
<svg version="1.1" id="Calque_7" xmlns="http://www.w3.org/2000/svg" xmlns:xlink="http://www.w3.org/1999/xlink" x="0px" y="0px"
	 width="32px" height="32px" viewBox="0 0 32 32" enable-background="new 0 0 32 32" xml:space="preserve">
<path fill="#444444" d="M21.955,10.688l7.789,13.492c2.38-4.007,2.945-8.952,1.343-13.492H21.955z"/>
<path fill="#444444" d="M14.376,8.188l15.579,0c-2.279-4.064-6.279-7.027-11.012-7.909L14.376,8.188z"/>
<path fill="#444444" d="M8.422,13.5l7.79-13.491c-4.66-0.059-9.226,1.924-12.355,5.581L8.422,13.5z"/>
<path fill="#444444" d="M10.046,21.313L2.258,7.822c-2.381,4.006-2.946,8.952-1.345,13.491L10.046,21.313z"/>
<path fill="#444444" d="M17.625,23.813L2.046,23.812c2.279,4.064,6.279,7.027,11.011,7.91L17.625,23.813z"/>
<path fill="#444444" d="M23.578,18.5l-7.79,13.491c4.659,0.059,9.225-1.925,12.356-5.581L23.578,18.5z"/>
</svg>
